<?xml version="1.0" encoding="UTF-8"?>
<svg width="171px" height="29px" viewBox="0 0 171 29" version="1.1" xmlns="http://www.w3.org/2000/svg" xmlns:xlink="http://www.w3.org/1999/xlink">
    <!-- Generator: Sketch 44.1 (41455) - http://www.bohemiancoding.com/sketch -->
    <title>Group 10</title>
    <desc>Created with Sketch.</desc>
    <defs>
        <polygon id="path-1" points="19.2508504 17.9073665 19.2508504 0.193725307 0.453378341 0.193725307 0.453378341 17.9073665 19.2508504 17.9073665"></polygon>
        <polygon id="path-3" points="0.454641234 0.0868965517 14.3876832 0.0868965517 14.3876832 24.660014 0.454641234 24.660014 0.454641234 0.0868965517"></polygon>
    </defs>
    <g id="Page-1" stroke="none" stroke-width="1" fill="none" fill-rule="evenodd">
        <g id="Home" transform="translate(-70.000000, -74.000000)">
            <g id="TOP-BAR">
                <g id="Group-10" transform="translate(70.000000, 74.000000)">
                    <polygon id="Fill-1" fill="#312F30" points="87.2222554 15.3696084 79.9033087 6 76 6 76 23.7136411 81.0078538 23.7136411 81.0078538 15.3696084 88.2495697 23.7136411 92.2296234 23.7136411 92.2296234 6 87.2222554 6"></polygon>
                    <polygon id="Fill-2" fill="#312F30" points="125 23.7136411 130.007368 23.7136411 130.007368 6 125 6"></polygon>
                    <path d="M64.7630155,18.6525307 C62.6923578,18.6525307 61.007368,16.9499474 61.007368,14.8565751 C61.007368,12.7636937 62.6923578,11.0611105 64.7630155,11.0611105 C66.8336732,11.0611105 68.5186629,12.7636937 68.5186629,14.8565751 C68.5186629,16.9499474 66.8336732,18.6525307 64.7630155,18.6525307 M64.7630155,6 C59.9232236,6 56,9.96533022 56,14.8565751 C56,19.7483109 59.9232236,23.7136411 64.7630155,23.7136411 C69.6023217,23.7136411 73.526031,19.7483109 73.526031,14.8565751 C73.526031,9.96533022 69.6023217,6 64.7630155,6" id="Fill-3" fill="#312F30"></path>
                    <polygon id="Fill-5" fill="#312F30" points="94 6 94 11.0611105 94 18.6525307 94 23.7136411 99.007368 23.7136411 106.518177 23.7136411 106.518177 18.6525307 99.007368 18.6525307 99.007368 16.8812157 106.518177 16.8812157 106.518177 12.8324255 99.007368 12.8324255 99.007368 11.0611105 106.518177 11.0611105 106.518177 6"></polygon>
                    <path d="M144.452976,15.2964582 L144.452976,15.3946464 L144.452976,15.3946464 C144.452976,17.1909994 143.00745,18.6525307 141.230172,18.6525307 C139.452894,18.6525307 138.007368,17.1909994 138.007368,15.3951373 L138.007368,15.3951373 L138.007368,6 L133,6 L133,15.3951373 C133,19.9893629 136.684731,23.7136411 141.230172,23.7136411 C145.775613,23.7136411 149.460344,19.988872 149.460344,15.3946464 L149.460344,6 L144.452976,6 L144.452976,15.2964582 Z" id="Fill-7" fill="#312F30"></path>
                    <g id="Group-11" transform="translate(151.000000, 6.000000)">
                        <mask id="mask-2" fill="white">
                            <use xlink:href="#path-1"></use>
                        </mask>
                        <g id="Clip-10"></g>
                        <polygon id="Fill-9" fill="#312F30" mask="url(#mask-2)" points="13.8065217 0.193725307 9.85221154 8.90105435 5.92315925 0.193725307 0.453378341 0.193725307 0.453378341 17.9073665 5.46074637 17.9073665 5.46074637 8.9530941 8.60049096 15.8100666 11.1039321 15.8100666 14.243191 8.9530941 14.243191 17.9073665 19.2510447 17.9073665 19.2510447 0.193725307"></polygon>
                    </g>
                    <polygon id="Fill-12" fill="#312F30" points="44.3988332 14.707329 40.4697809 6 35 6 35 23.7136411 40.007368 23.7136411 40.007368 14.7598597 43.1471126 21.6163413 43.1471126 21.6163413 45.6505538 21.6163413 45.6505538 21.6163413 48.7898126 14.7598597 48.7898126 23.7136411 53.7971807 23.7136411 53.7971807 6 48.3531433 6"></polygon>
                    <path d="M114.007368,12.4131619 L114.007368,10.4317241 L117.037824,10.4317241 C117.345775,10.4317241 117.654212,10.6015897 117.961678,10.940339 C118.270115,11.2790883 118.424091,11.7705202 118.424091,12.4131619 C118.424091,13.0558036 118.270115,13.5472355 117.961678,13.8859848 C117.654212,14.2247341 117.345775,14.3945996 117.037824,14.3945996 L114.007368,14.3945996 L114.007368,12.4131619 Z M121.775127,16.8061017 C122.314771,16.2061718 122.738325,15.5198364 123.046277,14.7466043 C123.354714,13.9728814 123.50869,13.1952309 123.50869,12.4131619 C123.50869,11.6310929 123.354714,10.8534424 123.046277,10.0797195 C122.738325,9.30648743 122.314771,8.62015196 121.775127,8.02022209 C121.235969,7.42078317 120.589466,6.93426067 119.836588,6.56016365 C119.083224,6.18704851 118.261372,6 117.371519,6 L109,6 L109,6 L109,12.4131619 L109,18.8263238 L109,23.7136411 L114.007368,23.7136411 L114.007368,18.8263238 L116.292717,18.8263238 L118.501322,23.7136411 L123.50869,23.7136411 L120.786185,17.6888136 C121.147081,17.427633 121.478833,17.1355231 121.775127,16.8061017 L121.775127,16.8061017 Z" id="Fill-14" fill="#312F30"></path>
                    <g id="Group-18" transform="translate(7.000000, 0.000000)">
                        <mask id="mask-4" fill="white">
                            <use xlink:href="#path-3"></use>
                        </mask>
                        <g id="Clip-17"></g>
                        <path d="M11.2186125,6.54085564 C11.217641,6.53987376 11.2171553,6.53889188 11.2161838,6.53790999 L5.74008844,1.00353244 C4.53111191,-0.218910579 2.57071445,-0.218910579 1.36173793,1.00353244 L1.36173793,1.00353244 C0.15227567,2.22548451 0.15227567,4.20692227 1.36173793,5.42936528 L6.83491893,10.9612881 C8.64571222,12.7915161 8.64571222,15.7690731 6.83540466,17.5997919 L4.97458141,19.4805868 L7.16375666,21.6932577 C7.98706531,22.5258936 8.46502148,23.5745435 8.60733973,24.660014 L11.2147266,22.0246429 L11.2147266,22.0246429 C15.4439587,17.748547 15.4454159,10.8184243 11.2186125,6.54085564" id="Fill-16" fill="#2383C5" mask="url(#mask-4)"></path>
                    </g>
                    <path d="M13.026188,23.2306487 L7.55252127,17.698235 C5.74221371,15.868498 5.74172798,12.89045 7.55252127,11.0602221 L9.41334453,9.17942724 L7.22416927,6.96626534 C6.4003749,6.1341204 5.92290446,5.08547049 5.78010048,4 L3.17271358,6.63537113 L3.17271358,6.63537113 C-1.0565185,10.910976 -1.05748995,17.8415897 3.16931348,22.1191584 C3.16979921,22.1201403 3.17077066,22.1211222 3.17174212,22.122104 L8.64735177,27.6564816 C9.85681402,28.8784337 11.8172115,28.8784337 13.026188,27.6564816 L13.026188,27.6564816 C14.2351645,26.4340386 14.2351645,24.4526008 13.026188,23.2306487" id="Fill-19" fill="#312F30"></path>
                </g>
            </g>
        </g>
    </g>
</svg>