<svg xmlns="http://www.w3.org/2000/svg" viewBox="0 0 223.74 223.74"><defs><style>.cls-1{fill:#fff;}.cls-2{font-size:80.7px;fill:#1d84c5;font-family:Montserrat-SemiBold, Montserrat SemiBold;font-weight:600;}.cls-3{fill:#2b2727;}.cls-4{fill:#2482c5;}</style></defs><g id="Layer_2" data-name="Layer 2"><g id="Layer_1-2" data-name="Layer 1"><circle class="cls-1" cx="111.87" cy="111.87" r="111.87"/><text class="cls-2" transform="translate(44 135.47)">ISK</text><path class="cls-3" d="M58.08,25.55a101.71,101.71,0,0,0,69.78,186.76l-11.59-11.58c-1.6.09-3,.13-4.4.13A89,89,0,0,1,67.12,35L61.7,29.54Q59.8,27.64,58.08,25.55Z"/><path class="cls-4" d="M165.68,198.17A101.71,101.71,0,0,0,95.88,11.43L107.46,23c1.61-.09,3-.13,4.41-.13a89,89,0,0,1,44.77,165.89l5.41,5.41C163.32,195.45,164.54,196.79,165.68,198.17Z"/></g></g></svg>