<svg xmlns="http://www.w3.org/2000/svg" viewBox="0 0 223.74 223.74"><defs><style>.cls-1{fill:#fff;}.cls-2{fill:#1d84c5;}.cls-3{fill:#2b2727;}.cls-4{fill:#2482c5;}</style></defs><g id="Layer_2" data-name="Layer 2"><g id="Layer_1-2" data-name="Layer 1"><circle class="cls-1" cx="111.87" cy="111.87" r="111.87"/><path class="cls-2" d="M137.35,89a13,13,0,0,0-2.95-2.23,54.06,54.06,0,0,0-11.59-5.18,37.19,37.19,0,0,0-7.34-1.5V102.7l3.27.79q6.81,1.83,12.38,3.92a33.68,33.68,0,0,1,9.43,5.24,21.67,21.67,0,0,1,6,7.54,25.06,25.06,0,0,1,2.09,10.8,27.35,27.35,0,0,1-2.55,12.32,23.32,23.32,0,0,1-6.95,8.38,30.84,30.84,0,0,1-10.21,4.91,53,53,0,0,1-12.25,1.9v14.41h-7.86V158.37a68.22,68.22,0,0,1-17.88-3.73,64.44,64.44,0,0,1-15.78-8.06l8-15.59a23.93,23.93,0,0,0,3.6,2.75,43.09,43.09,0,0,0,6.15,3.34,76.89,76.89,0,0,0,8,3.08,45.17,45.17,0,0,0,9.11,2V119.6c-.79-.18-1.57-.37-2.36-.59s-1.57-.46-2.36-.72a84.75,84.75,0,0,1-11.59-4,30.37,30.37,0,0,1-8.19-5.11,19.08,19.08,0,0,1-4.91-6.81,23.58,23.58,0,0,1-1.64-9.23,28.65,28.65,0,0,1,2.3-11.73,26.26,26.26,0,0,1,6.28-8.84A29.48,29.48,0,0,1,97,66.81a42.93,42.93,0,0,1,11.79-2.62V50.83h7.86V64.06a54.12,54.12,0,0,1,15.91,3.53,64.38,64.38,0,0,1,12.78,6.68Zm-39.83,1.3A7.9,7.9,0,0,0,100.6,97a30.15,30.15,0,0,0,9.37,4.13V79.91Q97.52,80.69,97.52,90.25Zm31.84,42.58a8,8,0,0,0-3.67-7,41,41,0,0,0-10.22-4.58v21.09Q129.36,142,129.36,132.83Z"/><path class="cls-3" d="M58.08,25.55a101.71,101.71,0,0,0,69.78,186.76l-11.59-11.58c-1.6.09-3,.13-4.4.13A89,89,0,0,1,67.12,35L61.7,29.54Q59.8,27.64,58.08,25.55Z"/><path class="cls-4" d="M165.68,198.17A101.71,101.71,0,0,0,95.88,11.43L107.46,23c1.61-.09,3-.13,4.41-.13a89,89,0,0,1,44.77,165.89l5.41,5.41C163.32,195.45,164.54,196.79,165.68,198.17Z"/></g></g></svg>