<svg xmlns="http://www.w3.org/2000/svg" viewBox="0 0 223.74 223.74"><defs><style>.cls-1{fill:#fff;}.cls-2{fill:#1d84c5;}.cls-3{fill:#2b2727;}.cls-4{fill:#2482c5;}</style></defs><g id="Layer_2" data-name="Layer 2"><g id="Layer_1-2" data-name="Layer 1"><circle class="cls-1" cx="111.87" cy="111.87" r="111.87"/><path class="cls-2" d="M79.59,107.37H90q-2.61-5.5-5.15-11a27.32,27.32,0,0,1-2.54-11.61,22.52,22.52,0,0,1,2.32-10.08,25.58,25.58,0,0,1,6.38-8.19,31.49,31.49,0,0,1,9.5-5.52,33.23,33.23,0,0,1,11.68-2A36.12,36.12,0,0,1,129,63a38.39,38.39,0,0,1,13.28,11.17L132.1,86.05a28,28,0,0,0-9.21-8.2,22.44,22.44,0,0,0-11-3.11,11.9,11.9,0,0,0-8.78,3.4,11.53,11.53,0,0,0-3.4,8.49,16,16,0,0,0,.79,4.93,46.06,46.06,0,0,0,2,5q1.15,2.55,2.54,5.23c.92,1.79,1.76,3.65,2.54,5.58h26.69V122h-23.5a30.27,30.27,0,0,1-2.68,12.69q-2.68,5.88-9.5,12.84a36.33,36.33,0,0,1,5.87-1.38,38.71,38.71,0,0,1,5.15-.36A39.77,39.77,0,0,1,119.7,147a37.62,37.62,0,0,0,9.65,1.24,22.39,22.39,0,0,0,5.07-.58c1.65-.39,3.58-1,5.81-1.74l4.78,14.5a33.72,33.72,0,0,1-8,3.19,34.07,34.07,0,0,1-8.63,1.16,33.27,33.27,0,0,1-6.6-.65q-3.26-.66-6.6-1.45c-2.22-.53-4.47-1-6.74-1.45a36.22,36.22,0,0,0-6.89-.65,53.24,53.24,0,0,0-8.85.87,74.2,74.2,0,0,0-9.72,2.32L78.72,150a50.41,50.41,0,0,0,11.68-13.2A29.14,29.14,0,0,0,94.24,122H79.59Z"/><path class="cls-3" d="M58.08,25.55a101.71,101.71,0,0,0,69.78,186.76l-11.59-11.58c-1.6.09-3,.13-4.4.13A89,89,0,0,1,67.12,35L61.7,29.54Q59.8,27.64,58.08,25.55Z"/><path class="cls-4" d="M165.68,198.17A101.71,101.71,0,0,0,95.88,11.43L107.46,23c1.61-.09,3-.13,4.41-.13a89,89,0,0,1,44.77,165.89l5.41,5.41C163.32,195.45,164.54,196.79,165.68,198.17Z"/></g></g></svg>